<?xml version="1.0" encoding="utf-8"?>
<!-- Generator: Adobe Illustrator 15.1.0, SVG Export Plug-In . SVG Version: 6.00 Build 0)  -->
<!DOCTYPE svg PUBLIC "-//W3C//DTD SVG 1.1//EN" "http://www.w3.org/Graphics/SVG/1.1/DTD/svg11.dtd">
<svg version="1.1" id="Layer_1" xmlns="http://www.w3.org/2000/svg" xmlns:xlink="http://www.w3.org/1999/xlink" x="0px" y="0px"
	 width="463.552px" height="176.178px" viewBox="0 0 463.552 176.178" enable-background="new 0 0 463.552 176.178"
	 xml:space="preserve">
<path display="none" fill="#FFFFFF" stroke="#000000" stroke-width="3" stroke-miterlimit="10" d="M-374.509-302.38
	c105.611-32.078,248.64-20.646,319.468,25.533c70.825,46.181,42.629,109.619-62.982,141.697
	c-105.609,32.078-248.639,20.646-319.467-25.533c-23.204-15.128-35.779-32.11-38.485-49.235
	C-481.53-245.064-445.518-280.811-374.509-302.38z"/>
<path display="none" fill="#FFFFFF" stroke="#000000" stroke-width="3" stroke-miterlimit="10" d="M-374.429-372.198
	c105.61-32.078,248.64-20.646,319.468,25.533c70.825,46.179,42.629,109.62-62.982,141.697
	c-105.609,32.078-248.64,20.646-319.467-25.532c-27.547-17.961-40.114-38.533-38.973-58.855
	C-474.591-321.286-438.962-352.597-374.429-372.198z"/>
<line display="none" fill="#FFFFFF" stroke="#000000" stroke-width="3" stroke-miterlimit="10" x1="-245.504" y1="-186.779" x2="-245.504" y2="-116.961"/>
<line display="none" fill="#FFFFFF" stroke="#000000" stroke-width="3" stroke-miterlimit="10" x1="-360.768" y1="-129.785" x2="-360.768" y2="-199.605"/>
<line display="none" fill="#FFFFFF" stroke="#000000" stroke-width="3" stroke-miterlimit="10" x1="-130.783" y1="-201.152" x2="-130.783" y2="-131.334"/>
<line display="none" fill="#FFFFFF" stroke="#000000" stroke-width="3" stroke-miterlimit="10" x1="-433.752" y1="-228.612" x2="-433.752" y2="-158.791"/>
<line display="none" fill="none" stroke="#000000" stroke-width="3" stroke-miterlimit="10" x1="-56.768" y1="-231.597" x2="-56.768" y2="-161.78"/>
<path display="none" fill="#FFFFFF" stroke="#000000" stroke-width="3" stroke-miterlimit="10" d="M696.253-500.738
	c105.611-32.078,248.64-20.646,319.468,25.533c70.825,46.181,42.629,109.619-62.982,141.697
	c-105.609,32.078-248.64,20.646-319.468-25.533c-23.203-15.129-35.778-32.109-38.484-49.235
	C589.231-443.422,625.243-479.169,696.253-500.738z"/>
<radialGradient id="SVGID_1_" cx="824.4951" cy="-486.9414" r="231.399" fx="659.1736" fy="-593.7192" gradientTransform="matrix(1 0 0 0.4424 0 -271.5312)" gradientUnits="userSpaceOnUse">
	<stop  offset="0" style="stop-color:#7F3F98"/>
	<stop  offset="1" style="stop-color:#FFFFFF;stop-opacity:0"/>
</radialGradient>
<path display="none" fill="url(#SVGID_1_)" stroke="#000000" stroke-width="3" stroke-miterlimit="10" d="M696.253-570.556
	c105.61-32.078,248.64-20.646,319.468,25.533c70.825,46.179,42.629,109.62-62.982,141.696
	c-105.609,32.078-248.64,20.646-319.467-25.532c-27.547-17.961-40.114-38.533-38.974-58.855
	C596.091-519.644,631.72-550.955,696.253-570.556z"/>
<line display="none" fill="#FFFFFF" stroke="#000000" stroke-width="3" stroke-miterlimit="10" x1="594.298" y1="-487.714" x2="594.236" y2="-416.192"/>
<line display="none" fill="#FFFFFF" stroke="#000000" stroke-width="3" stroke-miterlimit="10" x1="1054.765" y1="-486.941" x2="1054.765" y2="-419.124"/>
<line display="none" fill="#FFFFFF" stroke="#000000" stroke-width="3" stroke-miterlimit="10" x1="824.496" y1="-385.138" x2="824.496" y2="-315.319"/>
<line display="none" fill="#FFFFFF" stroke="#000000" stroke-width="3" stroke-miterlimit="10" x1="709.232" y1="-328.144" x2="709.232" y2="-397.964"/>
<line display="none" fill="#FFFFFF" stroke="#000000" stroke-width="3" stroke-miterlimit="10" x1="939.217" y1="-329.692" x2="939.217" y2="-399.511"/>
<line display="none" fill="#FFFFFF" stroke="#000000" stroke-width="3" stroke-miterlimit="10" x1="636.248" y1="-426.97" x2="636.248" y2="-357.149"/>
<line display="none" fill="none" stroke="#000000" stroke-width="3" stroke-miterlimit="10" x1="1013.232" y1="-429.956" x2="1013.232" y2="-360.138"/>
<line display="none" fill="#FFFFFF" stroke="#000000" stroke-width="3" stroke-miterlimit="10" x1="-476.443" y1="-286.445" x2="-476.443" y2="-214.197"/>
<line display="none" fill="none" stroke="#000000" stroke-width="3" stroke-miterlimit="10" x1="-16.138" y1="-293.137" x2="-16.006" y2="-219.614"/>
<g display="none">
	<path display="inline" d="M-399.213-211.653c1.825-7.799,5.024-15.233,8.787-22.306c3.791-7.074,8.285-13.774,13.338-20.029
		c10.164-12.476,22.581-23.065,36.232-31.596c13.645-8.587,28.599-14.948,43.961-19.693c15.387-4.729,31.246-7.79,47.209-9.611
		c7.989-0.872,16.007-1.421,24.031-1.71c4.012-0.144,8.025-0.223,12.038-0.237c4.018-0.005,7.992,0.01,11.985-0.041
		c15.955-0.176,31.91-0.983,47.708-2.961c7.887-1.034,15.742-2.416,23.372-4.579c3.81-1.088,7.562-2.379,11.151-4.013
		c3.577-1.639,7.015-3.628,9.923-6.223c2.905-2.563,5.215-5.878,6.012-9.679c0.833-3.792,0.143-7.813-1.322-11.458
		c-1.469-3.668-3.644-7.047-6.104-10.171c-2.466-3.127-5.22-6.046-8.246-8.66c3.124,2.499,5.995,5.318,8.598,8.373
		c2.573,3.075,4.87,6.431,6.487,10.153c1.606,3.695,2.475,7.887,1.698,11.985c-0.737,4.107-3.139,7.756-6.128,10.541
		c-3.01,2.81-6.555,4.914-10.202,6.668c-3.663,1.745-7.472,3.127-11.33,4.301c-7.726,2.334-15.646,3.866-23.591,5.047
		c-7.949,1.179-15.946,1.958-23.952,2.461c-8.006,0.517-16.021,0.807-24.034,0.944c-4.002,0.075-8.026,0.082-12.005,0.109
		c-3.984,0.037-7.967,0.139-11.946,0.304c-7.958,0.329-15.903,0.93-23.811,1.824c-15.819,1.713-31.522,4.654-46.747,9.239
		c-15.224,4.565-29.922,10.888-43.553,19.044c-13.608,8.176-26.024,18.426-36.31,30.573c-5.169,6.045-9.809,12.559-13.77,19.478
		c-1.98,3.459-3.788,7.02-5.395,10.672C-396.734-219.253-398.193-215.521-399.213-211.653z"/>
</g>
<g display="none">
	<path display="inline" d="M-16.642-298.409c0.617,3.854,0.871,7.779,0.657,11.696c-0.228,3.914-0.931,7.812-2.131,11.563
		c-2.382,7.522-6.833,14.337-12.474,19.866c-5.663,5.537-12.424,9.844-19.568,13.172c-7.161,3.326-14.739,5.691-22.457,7.286
		c-7.721,1.599-15.599,2.422-23.483,2.489c-7.883,0.081-15.776-0.532-23.554-1.873c-7.775-1.343-15.444-3.412-22.804-6.335
		c-7.352-2.924-14.41-6.709-20.758-11.528c-6.318-4.837-11.889-10.751-16.075-17.579c-1.062-1.688-1.977-3.52-2.897-5.144
		c-0.942-1.666-1.956-3.29-3.033-4.869c-2.157-3.156-4.584-6.124-7.272-8.835c-5.367-5.438-11.788-9.801-18.772-12.945
		c-6.993-3.141-14.49-5.15-22.118-6.284c-15.308-2.221-31.011-1.046-46.288,1.719c-15.315,2.751-30.367,7.118-44.875,12.872
		c7.11-3.232,14.458-5.94,21.905-8.319c7.45-2.376,15.02-4.403,22.692-5.997c7.678-1.559,15.46-2.666,23.302-3.175
		c7.838-0.503,15.745-0.396,23.58,0.614c7.827,1.001,15.596,2.952,22.863,6.203c7.268,3.219,14.006,7.736,19.646,13.385
		c2.825,2.817,5.378,5.901,7.645,9.177c1.131,1.639,2.196,3.323,3.186,5.049c1.012,1.768,1.849,3.43,2.876,5.042
		c4.019,6.475,9.368,12.083,15.455,16.705c6.068,4.664,12.873,8.371,20.003,11.254c7.137,2.884,14.612,4.949,22.21,6.307
		c15.208,2.706,30.92,2.601,46.121-0.187c7.593-1.431,15.059-3.619,22.121-6.75c7.05-3.128,13.708-7.235,19.338-12.51
		c5.648-5.229,10.182-11.741,12.736-19.062C-16.288-282.712-15.696-290.669-16.642-298.409z"/>
</g>
<g display="none">
	<path display="inline" d="M-40.574-336.489c3.763,4.88,7.231,10.108,9.326,16.015c1.02,2.942,1.682,6.092,1.423,9.292
		c-0.226,3.19-1.563,6.352-3.763,8.732c-2.184,2.406-5.007,4.071-7.91,5.308c-2.922,1.232-5.977,2.054-9.052,2.652
		c-6.164,1.179-12.421,1.51-18.642,1.499c-6.226-0.018-12.436-0.422-18.608-1.085c-6.175-0.651-12.318-1.531-18.433-2.553
		c-12.226-2.076-24.324-4.782-36.332-7.8c-11.887-3.096-24.012-5.188-36.231-6.526c-12.216-1.384-24.525-1.905-36.836-1.958
		c-12.314-0.02-24.636,0.601-36.91,1.765c-12.283,1.093-24.526,2.745-36.656,5.089c24.035-5.806,48.777-8.601,73.543-9.161
		c24.759-0.492,49.725,1.714,73.828,7.887c11.936,3.06,23.962,5.758,36.078,7.915c12.107,2.166,24.334,3.76,36.589,4.132
		c6.12,0.147,12.266-0.047,18.269-1.058c2.995-0.514,5.954-1.244,8.752-2.352c2.787-1.108,5.43-2.627,7.481-4.75
		c2.075-2.095,3.386-4.88,3.711-7.846c0.352-2.969-0.16-6.027-1.053-8.934c-0.905-2.917-2.205-5.718-3.677-8.417
		C-37.143-331.352-38.805-333.958-40.574-336.489z"/>
</g>
<line fill="#FFFFFF" stroke="#000000" stroke-width="3" stroke-miterlimit="10" x1="232.439" y1="106.359" x2="232.439" y2="176.178"/>
<line fill="#FFFFFF" stroke="#000000" stroke-width="3" stroke-miterlimit="10" x1="117.176" y1="163.354" x2="117.176" y2="93.533"/>
<line fill="#FFFFFF" stroke="#000000" stroke-width="3" stroke-miterlimit="10" x1="347.16" y1="91.986" x2="347.16" y2="161.805"/>
<line fill="#FFFFFF" stroke="#000000" stroke-width="3" stroke-miterlimit="10" x1="44.191" y1="64.527" x2="44.191" y2="134.348"/>
<line fill="none" stroke="#000000" stroke-width="3" stroke-miterlimit="10" x1="421.176" y1="61.541" x2="421.176" y2="131.359"/>
<line fill="#FFFFFF" stroke="#000000" stroke-width="3" stroke-miterlimit="10" x1="1.5" y1="6.693" x2="1.5" y2="78.941"/>
<line fill="none" stroke="#000000" stroke-width="3" stroke-miterlimit="10" x1="462.052" y1="0.002" x2="461.938" y2="73.525"/>
<radialGradient id="SVGID_2_" cx="423.0889" cy="-262.7842" r="231.3981" fx="257.768" fy="-369.5616" gradientTransform="matrix(1 0 0 0.4424 0 -146.5353)" gradientUnits="userSpaceOnUse">
	<stop  offset="0" style="stop-color:#7F3F98"/>
	<stop  offset="1" style="stop-color:#FFFFFF;stop-opacity:0"/>
</radialGradient>
<path display="none" fill="url(#SVGID_2_)" stroke="#000000" stroke-width="3" stroke-miterlimit="10" d="M294.846-346.398
	c105.61-32.078,248.64-20.646,319.468,25.533c70.825,46.18,42.629,109.619-62.982,141.696
	c-105.609,32.078-248.64,20.646-319.467-25.532c-27.547-17.961-40.114-38.533-38.974-58.855
	C194.684-295.486,230.313-326.797,294.846-346.398z"/>
</svg>
